<?xml version="1.0" encoding="UTF-8"?>
<svg width="256px" height="256px" viewBox="0 0 256 256" version="1.1" xmlns="http://www.w3.org/2000/svg" xmlns:xlink="http://www.w3.org/1999/xlink">
    <g stroke="none" stroke-width="1" fill="none" fill-rule="evenodd">
        <g fill="#000000">
            <path d="M27,160 L39.0189125,160 L57.9267139,134.590909 L76.9810875,160 L89,160 L63.9361702,126.465909 L87.3877069,95 L75.3687943,95 L57.9267139,118.340909 L40.4846336,95 L28.465721,95 L51.9172577,126.465909 L27,160 Z M128.368764,94 C146.806941,94 162,109.261926 162,127.78368 C162,146.009086 146.806941,161.863708 128.368764,161.863708 C118.4859,161.863708 109.78308,157.122138 103.882863,149.861611 L103.882863,200 L94,200 L94,95.0372182 L103.882863,95.0372182 L103.882863,105.705749 C109.78308,98.5933951 118.4859,94 128.368764,94 Z M128.549815,152.269372 C141.686347,152.269372 151.575646,140.904059 151.575646,128.06273 C151.575646,114.926199 141.686347,104.151291 128.549815,104.151291 C115.708487,104.151291 104.343173,114.926199 104.343173,128.06273 C104.343173,140.904059 115.708487,152.269372 128.549815,152.269372 Z M169,160 L169,54 L178.813131,54 L178.813131,119.705882 L205.030303,93.9705882 L218.79798,93.9705882 L192.287879,119.705882 L227,160 L213.818182,160 L185.111111,126.764706 L178.813131,132.941176 L178.813131,160 L169,160 Z"></path>
        </g>
    </g>
</svg>
